<mxfile host="65bd71144e">
    <diagram id="JoXixv5OQ8RV3UTiPCVC" name="PAP_1">
        <mxGraphModel dx="766" dy="574" grid="1" gridSize="10" guides="1" tooltips="1" connect="1" arrows="1" fold="1" page="1" pageScale="1" pageWidth="827" pageHeight="1169" math="0" shadow="0">
            <root>
                <mxCell id="0"/>
                <mxCell id="1" parent="0"/>
                <mxCell id="2" value="Stopp" style="rounded=1;whiteSpace=wrap;html=1;" vertex="1" parent="1">
                    <mxGeometry x="110" y="410" width="120" height="60" as="geometry"/>
                </mxCell>
                <mxCell id="4" value="" style="edgeStyle=none;html=1;" edge="1" parent="1" source="3" target="6">
                    <mxGeometry relative="1" as="geometry"/>
                </mxCell>
                <mxCell id="3" value="Start" style="rounded=1;whiteSpace=wrap;html=1;" vertex="1" parent="1">
                    <mxGeometry x="110" y="50" width="120" height="60" as="geometry"/>
                </mxCell>
                <mxCell id="7" style="edgeStyle=none;html=1;entryX=0.5;entryY=0;entryDx=0;entryDy=0;" edge="1" parent="1" source="6" target="8">
                    <mxGeometry relative="1" as="geometry"/>
                </mxCell>
                <mxCell id="6" value="firstName = &quot;Mathias&quot;" style="rounded=0;whiteSpace=wrap;html=1;" vertex="1" parent="1">
                    <mxGeometry x="110" y="170" width="120" height="60" as="geometry"/>
                </mxCell>
                <mxCell id="9" style="edgeStyle=none;html=1;entryX=0.5;entryY=0;entryDx=0;entryDy=0;" edge="1" parent="1" source="8" target="2">
                    <mxGeometry relative="1" as="geometry"/>
                </mxCell>
                <mxCell id="8" value="Ausgabe firstName" style="shape=parallelogram;perimeter=parallelogramPerimeter;whiteSpace=wrap;html=1;fixedSize=1;" vertex="1" parent="1">
                    <mxGeometry x="110" y="290" width="120" height="60" as="geometry"/>
                </mxCell>
            </root>
        </mxGraphModel>
    </diagram>
    <diagram name="PAP_2" id="3OYGy7xZaJDwkI2zoJMJ">
        <mxGraphModel dx="766" dy="574" grid="1" gridSize="10" guides="1" tooltips="1" connect="1" arrows="1" fold="1" page="1" pageScale="1" pageWidth="827" pageHeight="1169" math="0" shadow="0">
            <root>
                <mxCell id="wkLuRXynhkfUTKyjyq0P-0"/>
                <mxCell id="wkLuRXynhkfUTKyjyq0P-1" parent="wkLuRXynhkfUTKyjyq0P-0"/>
                <mxCell id="wkLuRXynhkfUTKyjyq0P-2" value="Stopp" style="rounded=1;whiteSpace=wrap;html=1;" vertex="1" parent="wkLuRXynhkfUTKyjyq0P-1">
                    <mxGeometry x="110" y="330" width="120" height="60" as="geometry"/>
                </mxCell>
                <mxCell id="wkLuRXynhkfUTKyjyq0P-3" value="" style="edgeStyle=none;html=1;" edge="1" parent="wkLuRXynhkfUTKyjyq0P-1" source="wkLuRXynhkfUTKyjyq0P-4" target="wkLuRXynhkfUTKyjyq0P-6">
                    <mxGeometry relative="1" as="geometry"/>
                </mxCell>
                <mxCell id="wkLuRXynhkfUTKyjyq0P-4" value="Start" style="rounded=1;whiteSpace=wrap;html=1;" vertex="1" parent="wkLuRXynhkfUTKyjyq0P-1">
                    <mxGeometry x="110" y="50" width="120" height="60" as="geometry"/>
                </mxCell>
                <mxCell id="wkLuRXynhkfUTKyjyq0P-5" style="edgeStyle=none;html=1;entryX=0.5;entryY=0;entryDx=0;entryDy=0;" edge="1" parent="wkLuRXynhkfUTKyjyq0P-1" source="wkLuRXynhkfUTKyjyq0P-6" target="wkLuRXynhkfUTKyjyq0P-8">
                    <mxGeometry relative="1" as="geometry"/>
                </mxCell>
                <mxCell id="wkLuRXynhkfUTKyjyq0P-6" value="firstName = &quot;Mathias&quot;" style="rounded=0;whiteSpace=wrap;html=1;" vertex="1" parent="wkLuRXynhkfUTKyjyq0P-1">
                    <mxGeometry x="110" y="120" width="120" height="60" as="geometry"/>
                </mxCell>
                <mxCell id="wkLuRXynhkfUTKyjyq0P-7" style="edgeStyle=none;html=1;entryX=0.5;entryY=0;entryDx=0;entryDy=0;" edge="1" parent="wkLuRXynhkfUTKyjyq0P-1" source="wkLuRXynhkfUTKyjyq0P-8" target="wkLuRXynhkfUTKyjyq0P-2">
                    <mxGeometry relative="1" as="geometry"/>
                </mxCell>
                <mxCell id="wkLuRXynhkfUTKyjyq0P-8" value="Ausgabe firstName &amp;amp; familiyName" style="shape=parallelogram;perimeter=parallelogramPerimeter;whiteSpace=wrap;html=1;fixedSize=1;" vertex="1" parent="wkLuRXynhkfUTKyjyq0P-1">
                    <mxGeometry x="110" y="260" width="120" height="60" as="geometry"/>
                </mxCell>
                <mxCell id="wkLuRXynhkfUTKyjyq0P-9" value="fanmilyName = &quot;Weber&quot;" style="rounded=0;whiteSpace=wrap;html=1;" vertex="1" parent="wkLuRXynhkfUTKyjyq0P-1">
                    <mxGeometry x="110" y="190" width="120" height="60" as="geometry"/>
                </mxCell>
            </root>
        </mxGraphModel>
    </diagram>
</mxfile>